<?xml version="1.0" encoding="utf-8"?>
<!-- Generator: Adobe Illustrator 24.3.0, SVG Export Plug-In . SVG Version: 6.00 Build 0)  -->
<svg version="1.1" id="Layer_1" xmlns="http://www.w3.org/2000/svg" xmlns:xlink="http://www.w3.org/1999/xlink" x="0px" y="0px"
	 viewBox="0 0 595.28 841.89" style="enable-background:new 0 0 595.28 841.89;" xml:space="preserve">
<style type="text/css">
	.st0{fill:#1E1E1C;}
	.st1{fill:#FFFFFF;}
</style>
<g>
	<path class="st0" d="M229.44,345.1l-12.97,52.7H199.8l42.42-167.55h19.45l42.61,167.55h-17.22l-13.34-52.7H229.44z M270.37,328.19
		l-12.23-48.23c-2.78-10.94-4.62-20.89-6.48-30.58h-0.37c-1.86,9.95-3.89,20.14-6.3,30.33l-12.23,48.48H270.37z"/>
</g>
<g>
	<path class="st0" d="M309.76,383.97l-11.79,42.36h-15.15l38.55-134.67h17.68l38.73,134.67h-15.65L350,383.97H309.76z
		 M346.97,370.39l-11.11-38.76c-2.53-8.8-4.2-16.79-5.89-24.58h-0.34c-1.69,7.99-3.54,16.19-5.73,24.38l-11.11,38.97H346.97z"/>
</g>
<g>
	<path class="st1" d="M293.05,309l-22.94,16.33l12.3,7.64c17.04-9.17,39.55-7.17,59.11,4.98c21.52,13.37,23.45,29.38,7.68,40.6
		c-18.44,13.13-43.97,9.99-63.65-2.23c-20.05-12.45-23.8-27.81-9.14-39.4l-12.05-7.49l-24.44,17.39l-10.7-6.64l53.13-37.82
		L293.05,309z M337.94,371.98c10.56-7.52,13.93-20.25-2.43-30.4c-16.48-10.24-35.19-7.57-46.7,0.62
		c-11.19,7.97-12.87,20.8,2.63,30.42C307.18,382.4,325.88,380.56,337.94,371.98z"/>
</g>
</svg>
